<svg xmlns="http://www.w3.org/2000/svg" fill="none" viewBox="0 0 2438 2170">
  <defs />
  <path fill="#4A154B"
    d="M529.4 2060.5l-500-865.9a219.1 219.1 0 010-219l499.9-865.9A219 219 0 01719.1.1H1719a219 219 0 01189.7 109.5l499.9 865.9a219.1 219.1 0 010 219l-499.9 865.9a218.9 218.9 0 01-189.7 109.5H719.1a218.6 218.6 0 01-189.7-109.4z" />
  <path fill="#F50059" d="M1790.4 1085.7L1526.6 627l-263.8 458.7 263.8 458.7 263.8-458.7z" />
  <path fill="#00BA76" d="M647.6 1123.8l262.9 457.1h527.1l-262.9-457.1H647.6z" />
  <path fill="#00C8F6" d="M1171.4 1047.6l267.1-457.1H911.3l-263.7 457.1h523.8z" />
</svg>